# xmcd
#
# Track frame offsets:
#	150
#	12139
#	22083
#	32473
#	42709
#	55421
#	67710
#	81852
#	97638
#	107105
#	116920
#	127360
#	138556
#	151086
#
# Disc length: 2168 seconds
# Revision: 0
# Processed by: cddbd v1.5.2PL0 Copyright (c) Steve Scherf et al.
# Submitted via: dBpowerAMP V12.0
#
DISCID=b808760e
DTITLE=Skeeter Davis - The End Of The World
DYEAR=1963
DGENRE=Country
TTITLE0=The End Of The World
TTITLE1=Silver Threads And Golden Needles
TTITLE2=Mine Is A Lonely Life
TTITLE3=Once Upon A Time
TTITLE4=Why I’m Walkin’
TTITLE5=Don’t Let Me Cross Over
TTITLE6=My Coloring Book 
TTITLE7=(I Want To Go) Where Nobody Knows Me 
TTITLE8=Keep Your Hands Off My Baby
TTITLE9=Something Precious 
TTITLE10=Longing To Hold You Again
TTITLE11=He Called Me Baby
TTITLE12=(I Can’t Help You) I’m Falling Too
TTITLE13=My Last Date (With You)
EXTD=
EXTT0=
EXTT1=
EXTT2=
EXTT3=
EXTT4=
EXTT5=
EXTT6=
EXTT7=
EXTT8=
EXTT9=
EXTT10=
EXTT11=
EXTT12=
EXTT13=
PLAYORDER=
